<?xml version="1.0" encoding="UTF-8" standalone="no"?>
<!-- Created with Inkscape (http://www.inkscape.org/) -->

<svg
   xmlns:dc="http://purl.org/dc/elements/1.1/"
   xmlns:cc="http://creativecommons.org/ns#"
   xmlns:rdf="http://www.w3.org/1999/02/22-rdf-syntax-ns#"
   xmlns:svg="http://www.w3.org/2000/svg"
   xmlns="http://www.w3.org/2000/svg"
   xmlns:xlink="http://www.w3.org/1999/xlink"
   xmlns:sodipodi="http://sodipodi.sourceforge.net/DTD/sodipodi-0.dtd"
   xmlns:inkscape="http://www.inkscape.org/namespaces/inkscape"
   width="1024"
   height="1024"
   viewBox="0 0 270.93333 270.93333"
   version="1.1"
   id="svg8"
   inkscape:version="0.92.4 (f8dce91, 2019-08-02)"
   sodipodi:docname="explosion.svg">
  <defs
     id="defs2">
    <linearGradient
       inkscape:collect="always"
       id="linearGradient1376">
      <stop
         style="stop-color:#ffe4ff;stop-opacity:1"
         offset="0"
         id="stop1372" />
      <stop
         id="stop1380"
         offset="0.1661274"
         style="stop-color:#ffe40e;stop-opacity:0.83137256" />
      <stop
         style="stop-color:#ff0014;stop-opacity:1"
         offset="1"
         id="stop1374" />
    </linearGradient>
    <radialGradient
       inkscape:collect="always"
       xlink:href="#linearGradient1376"
       id="radialGradient1378"
       cx="545.08704"
       cy="570.15906"
       fx="545.08704"
       fy="570.15906"
       r="499.10808"
       gradientTransform="matrix(1.1926062,0.71732997,-0.62707178,1.042558,258.885,-448.57397)"
       gradientUnits="userSpaceOnUse" />
    <radialGradient
       inkscape:collect="always"
       xlink:href="#linearGradient1376"
       id="radialGradient1378-3"
       cx="545.08704"
       cy="570.15906"
       fx="545.08704"
       fy="570.15906"
       r="499.10809"
       gradientTransform="matrix(0.30052807,-0.21277289,-0.18600093,-0.26271717,84.901788,417.57142)"
       gradientUnits="userSpaceOnUse" />
  </defs>
  <sodipodi:namedview
     id="base"
     pagecolor="#ffffff"
     bordercolor="#666666"
     borderopacity="1.0"
     inkscape:pageopacity="0.0"
     inkscape:pageshadow="2"
     inkscape:zoom="0.7"
     inkscape:cx="965.91968"
     inkscape:cy="460.21364"
     inkscape:document-units="mm"
     inkscape:current-layer="layer1"
     showgrid="false"
     units="px"
     inkscape:window-width="2740"
     inkscape:window-height="1492"
     inkscape:window-x="140"
     inkscape:window-y="54"
     inkscape:window-maximized="1" />
  <metadata
     id="metadata5">
    <rdf:RDF>
      <cc:Work
         rdf:about="">
        <dc:format>image/svg+xml</dc:format>
        <dc:type
           rdf:resource="http://purl.org/dc/dcmitype/StillImage" />
        <dc:title></dc:title>
      </cc:Work>
    </rdf:RDF>
  </metadata>
  <g
     inkscape:label="Layer 1"
     inkscape:groupmode="layer"
     id="layer1"
     transform="translate(0,-26.066725)"
     style="display:inline">
    <path
       style="fill:none;stroke:#000000;stroke-width:0.30311954px;stroke-linecap:butt;stroke-linejoin:miter;stroke-opacity:1"
       d="m 126.60104,106.62454 26.64213,-54.489905 16.85522,68.284825 83.73239,-78.631011 -47.84708,79.320761 63.61488,73.80279 -64.15859,-11.03593 16.3115,100.70287 -75.57665,-59.31813 -38.60389,70.35406 L 122.79503,210.0864 47.218376,225.95056 95.609178,174.21963 1.0024409,76.275729 69.510769,117.66049 68.423335,27.303788 Z"
       id="path1368"
       inkscape:connector-curvature="0" />
    <path
       style="opacity:1;fill:url(#radialGradient1378);fill-opacity:1;stroke-width:1.42857146"
       d="m 410.67246,1005.7864 c -0.0446,-1.1786 12.23518,-71.43301 27.28825,-156.12093 15.05307,-84.68793 27.05656,-154.29071 26.6744,-154.67287 -0.38216,-0.38216 -63.57019,12.50126 -140.41783,28.6298 -76.84764,16.12854 -139.9397,29.10792 -140.20459,28.84304 -0.26487,-0.26488 39.6954,-43.43788 88.80062,-95.94001 49.10521,-52.50213 89.28221,-95.96923 89.28221,-96.59354 0,-0.62432 -78.08764,-81.97482 -173.5281,-180.77889 C 93.126958,280.34893 15.243763,199.30479 15.49365,199.0549 c 0.249887,-0.24989 55.890921,33.03764 123.64674,73.9723 67.75582,40.93466 123.5389,74.08016 123.96239,73.65666 0.4235,-0.4235 -0.13686,-76.49512 -1.24512,-169.04803 -1.10831,-92.552925 -1.96621,-168.4093139 -1.90644,-168.5697551 0.0597,-0.1604411 48.94169,66.3030741 108.62649,147.6966951 59.6848,81.39363 109.14063,147.96862 109.90184,147.94443 0.76123,-0.0241 23.54874,-45.41447 50.63894,-100.86729 27.09019,-55.45282 49.44398,-100.63423 49.67506,-100.40315 0.23109,0.23109 14.25757,56.62214 31.16997,125.31345 16.9124,68.6913 31.22152,125.9903 31.79805,127.3311 0.83461,1.94099 32.33225,-26.9435 154.55434,-141.732 84.42836,-79.29339 153.72688,-143.949014 153.99674,-143.679155 0.26986,0.269857 -38.19007,64.601905 -85.46653,142.960115 -47.27644,78.3582 -86.19135,143.52396 -86.47757,144.81277 -0.3282,1.47783 43.21242,52.99586 117.88716,139.48617 65.12416,75.42858 117.97649,137.30828 117.44959,137.51043 -0.527,0.20217 -53.31841,-8.63711 -117.31439,-19.64285 -63.99597,-11.00573 -117.48369,-20.01043 -118.86157,-20.01043 -1.95683,0 -2.34613,0.86 -1.77837,3.92857 3.00541,16.24374 60.2626,372.59884 59.92374,372.95117 -0.23866,0.24816 -63.96569,-49.41256 -141.61563,-110.35714 C 616.40915,801.36439 552.54075,751.52812 552.12931,751.5617 c -0.41144,0.0336 -30.3195,54.11043 -66.46236,120.17077 -75.50749,138.00933 -74.88691,136.90003 -74.99449,134.05393 z"
       id="path1370"
       inkscape:connector-curvature="0"
       transform="matrix(0.26458333,0,0,0.26458333,0,26.066725)" />
    <path
       style="opacity:0.54600004;fill:url(#radialGradient1378-3);fill-opacity:1;stroke-width:0.37797621"
       d="m 96.284658,30.849356 c 0.0115,0.311865 4.636172,18.606312 10.277162,40.654355 5.64094,22.048063 10.17995,40.176029 10.08665,40.284389 -0.0935,0.10823 -17.019292,-2.04544 -37.613302,-4.78623 -20.594006,-2.7408 -37.496563,-4.92181 -37.56122,-4.84669 -0.06478,0.0752 11.329719,10.6786 25.320885,23.56328 13.991145,12.88471 25.448535,23.56153 25.460835,23.72626 0.0118,0.16479 -18.987514,23.16805 -42.221835,51.11848 -23.234322,27.95043 -42.1862524,50.86888 -42.1153984,50.92989 0.07101,0.0608 14.0955204,-9.81856 31.1659394,-21.95458 17.07041,-12.13602 31.135374,-21.98091 31.255436,-21.87752 0.120069,0.10344 1.47165,20.1858 3.003495,44.62755 1.531834,24.44176 2.800613,44.47323 2.819553,44.51439 0.019,0.0412 11.60631,-18.45859 25.749752,-41.11056 14.14343,-22.65198 25.88003,-41.19244 26.08136,-41.20107 0.20128,-0.009 7.10843,11.51837 15.34912,25.61553 8.24068,14.09717 15.02923,25.57758 15.08565,25.51207 0.0564,-0.0655 2.64579,-15.22067 5.75416,-33.6781 3.10839,-18.4574 5.75442,-33.85769 5.88012,-34.22282 0.18198,-0.52856 9.06186,6.47171 43.57247,34.3494 23.83917,19.25729 43.39785,34.95067 43.46372,34.87414 0.0659,-0.0765 -11.34971,-16.29235 -25.36798,-36.03518 -14.01828,-19.74281 -25.57035,-36.16966 -25.67127,-36.50407 -0.1157,-0.38343 10.35696,-14.83458 28.35498,-39.12677 15.69617,-21.1853 28.42149,-38.55388 28.27847,-38.59685 -0.14302,-0.043 -13.8977,3.32986 -30.56602,7.49502 -16.66828,4.16524 -30.60343,7.59536 -30.96699,7.62248 -0.51632,0.0385 -0.63599,-0.18065 -0.54666,-1.00149 0.47281,-4.34512 8.55611,-99.497319 8.45977,-99.583592 -0.0679,-0.06081 -15.90331,14.298191 -35.18985,31.908808 C 154.5971,80.730504 138.72785,95.138574 138.61863,95.137834 138.5094,95.137084 129.55235,81.458497 118.71404,64.740983 96.071338,29.815849 96.256948,30.096304 96.284658,30.849356 Z"
       id="path1370-3"
       inkscape:connector-curvature="0" />
  </g>
</svg>
